<?xml version="1.0" encoding="utf-8"?>
<!-- Generator: Adobe Illustrator 24.3.0, SVG Export Plug-In . SVG Version: 6.00 Build 0)  -->
<svg version="1.1" id="Layer_1" xmlns="http://www.w3.org/2000/svg" xmlns:xlink="http://www.w3.org/1999/xlink" x="0px" y="0px"
	 viewBox="0 0 24.2 24.2" style="enable-background:new 0 0 24.2 24.2;" xml:space="preserve">
<style type="text/css">
	.st0{fill:#FFFFFF;}
</style>
<g>
	<path class="st0" d="M12.1,2c5.6,0,10.1,4.5,10.1,10.1s-4.5,10.1-10.1,10.1S2,17.6,2,12.1S6.5,2,12.1,2 M12.1,0C5.4,0,0,5.4,0,12.1
		s5.4,12.1,12.1,12.1s12.1-5.4,12.1-12.1S18.7,0,12.1,0L12.1,0z"/>
</g>
<path class="st0" d="M12.1,5c0.4,0,0.7,0.1,1,0.4c0.3,0.3,0.4,0.6,0.4,1S13.3,7,13,7.3c-0.3,0.3-0.6,0.4-1,0.4c-0.4,0-0.7-0.1-1-0.4
	c-0.3-0.3-0.4-0.6-0.4-1s0.1-0.7,0.4-1C11.4,5.1,11.7,5,12.1,5z M10.8,18.9v-8.1H9.6V8.8h3.7v10H10.8z"/>
</svg>
