<?xml version="1.0" encoding="utf-8"?>
<!-- Generator: Adobe Illustrator 25.0.0, SVG Export Plug-In . SVG Version: 6.00 Build 0)  -->
<svg version="1.1" id="Layer_1" xmlns="http://www.w3.org/2000/svg" xmlns:xlink="http://www.w3.org/1999/xlink" x="0px" y="0px"
	 viewBox="0 0 19.4 19.4" style="enable-background:new 0 0 19.4 19.4;" xml:space="preserve">
<style type="text/css">
	.st0{fill:#FFFFFF;}
</style>
<g>
	<path class="st0" d="M9.7,1.6c4.5,0,8.1,3.6,8.1,8.1s-3.6,8.1-8.1,8.1s-8.1-3.7-8.1-8.1S5.2,1.6,9.7,1.6 M9.7,0C4.3,0,0,4.3,0,9.7
		s4.3,9.7,9.7,9.7s9.7-4.3,9.7-9.7S15,0,9.7,0L9.7,0z"/>
</g>
<path class="st0" d="M9.7,4c0.3,0,0.6,0.1,0.8,0.3c0.2,0.2,0.3,0.5,0.3,0.8c0,0.3-0.2,0.5-0.4,0.7c-0.2,0.2-0.5,0.3-0.8,0.3
	S9,6.1,8.8,5.8C8.6,5.6,8.5,5.4,8.5,5c0-0.3,0.1-0.6,0.3-0.8C9.1,4.1,9.4,4,9.7,4z M8.6,15.1V8.6h-1V7h3v8L8.6,15.1L8.6,15.1z"/>
</svg>
