<svg width="34" height="34" viewBox="0 0 34 34" fill="none" xmlns="http://www.w3.org/2000/svg">
<circle cx="17.4018" cy="16.5982" r="15.0982" stroke="white" strokeWidth="3"/>
<path d="M17.3705 7.69543C17.8392 7.69543 18.2377 7.8634 18.5658 8.19934C18.9017 8.52747 19.0697 8.9259 19.0697 9.39465C19.0697 9.8634 18.9017 10.2657 18.5658 10.6017C18.2377 10.9298 17.8392 11.0939 17.3705 11.0939C16.9017 11.0939 16.4994 10.9298 16.1635 10.6017C15.8353 10.2657 15.6713 9.8634 15.6713 9.39465C15.6713 8.9259 15.8353 8.52747 16.1635 8.19934C16.4994 7.8634 16.9017 7.69543 17.3705 7.69543ZM15.8588 25.1095V14.9611H14.2533V12.5587H18.8236V25.1095H15.8588Z" fill="white"/>
</svg>
