<?xml version="1.0" encoding="utf-8"?>
<!-- Generator: Adobe Illustrator 25.0.0, SVG Export Plug-In . SVG Version: 6.00 Build 0)  -->
<svg version="1.1" id="Layer_1" xmlns="http://www.w3.org/2000/svg" xmlns:xlink="http://www.w3.org/1999/xlink" x="0px" y="0px"
	 viewBox="0 0 23.2 24.8" style="enable-background:new 0 0 23.2 24.8;" xml:space="preserve">
<style type="text/css">
	.st0{fill:#FFFFFF;}
</style>
<path class="st0" d="M7.7,16.7H3.3c-0.6,0-1-0.4-1-1V9.6c0-0.6,0.5-1,1-1h0.2l13,12.8v2.4c0,0.9-1.1,1.3-1.8,0.6L7.7,16.7z M16.7,18
	V1c0-0.9-1.1-1.3-1.8-0.6L7.3,8.6H7.2L16.7,18z"/>
<g>
	<path class="st0" d="M21.9,22.9c-0.3,0-0.6-0.1-0.8-0.3L0.3,2c-0.4-0.4-0.4-1.2,0-1.7c0.5-0.5,1.2-0.5,1.7,0l20.8,20.5
		c0.5,0.5,0.5,1.2,0,1.7C22.5,22.8,22.2,22.9,21.9,22.9z"/>
</g>
</svg>
