<?xml version="1.0" encoding="utf-8"?>
<!-- Generator: Adobe Illustrator 24.3.0, SVG Export Plug-In . SVG Version: 6.00 Build 0)  -->
<svg version="1.1" id="Layer_1" xmlns="http://www.w3.org/2000/svg" xmlns:xlink="http://www.w3.org/1999/xlink" x="0px" y="0px"
	 viewBox="0 0 28.9 31" style="enable-background:new 0 0 28.9 31;" xml:space="preserve">
<style type="text/css">
	.st0{fill:#FFFFFF;}
</style>
<path class="st0" d="M9.7,20.8H4.2c-0.7,0-1.3-0.5-1.3-1.2v-7.7c0-0.7,0.6-1.2,1.3-1.2h0.3l16.3,16v3c0,1.1-1.4,1.6-2.2,0.8
	L9.7,20.8z M20.9,22.5V1.2c0-1.1-1.4-1.6-2.2-0.8L9.2,10.7H9L20.9,22.5z"/>
<g>
	<path class="st0" d="M27.4,28.6c-0.4,0-0.8-0.1-1-0.4L0.4,2.5C-0.1,2-0.1,1,0.4,0.4c0.6-0.6,1.5-0.6,2.1,0L28.5,26
		c0.6,0.6,0.6,1.5,0,2.1C28.2,28.4,27.8,28.6,27.4,28.6z"/>
</g>
</svg>
