<?xml version="1.0" encoding="utf-8"?>
<!-- Generator: Adobe Illustrator 24.3.0, SVG Export Plug-In . SVG Version: 6.00 Build 0)  -->
<svg version="1.1" id="Layer_1" xmlns="http://www.w3.org/2000/svg" xmlns:xlink="http://www.w3.org/1999/xlink" x="0px" y="0px"
	 viewBox="0 0 14.9 19.3" style="enable-background:new 0 0 14.9 19.3;" xml:space="preserve">
<style type="text/css">
	.st0{fill:#FFFFFF;}
</style>
<!-- <g id="Layer_1_2_"> -->
	<path class="st0" d="M1.8,0h0.9c1,0,1.8,0.8,1.8,1.8v15.8c0,1-0.8,1.8-1.8,1.8H1.8c-1,0-1.8-0.8-1.8-1.8V1.8C0,0.8,0.8,0,1.8,0z"/>
	<path class="st0" d="M12.3,0h0.9c1,0,1.8,0.8,1.8,1.8v15.8c0,1-0.8,1.8-1.8,1.8h-0.9c-1,0-1.8-0.8-1.8-1.8V1.8
		C10.5,0.8,11.3,0,12.3,0z"/>
<!-- </g> -->
</svg>
