<?xml version="1.0" encoding="utf-8"?>
<!-- Generator: Adobe Illustrator 25.0.0, SVG Export Plug-In . SVG Version: 6.00 Build 0)  -->
<svg version="1.1" id="Layer_1" xmlns="http://www.w3.org/2000/svg" xmlns:xlink="http://www.w3.org/1999/xlink" x="0px" y="0px"
	 viewBox="0 0 12 15.6" style="enable-background:new 0 0 12 15.6;" xml:space="preserve">
<style type="text/css">
	.st0{fill:#FFFFFF;}
</style>
<path class="st0" d="M1.4,0h0.7C3,0,3.6,0.6,3.6,1.4v12.6c0,0.8-0.6,1.4-1.4,1.4H1.4c-0.8,0-1.4-0.6-1.4-1.4V1.4C0,0.6,0.6,0,1.4,0z
	"/>
<path class="st0" d="M9.8,0h0.7C11.4,0,12,0.6,12,1.4v12.6c0,0.8-0.6,1.4-1.4,1.4H9.8c-0.8,0-1.4-0.6-1.4-1.4V1.4C8.4,0.6,9,0,9.8,0
	z"/>
</svg>
