<?xml version="1.0" encoding="utf-8"?>
<!-- Generator: Adobe Illustrator 24.3.0, SVG Export Plug-In . SVG Version: 6.00 Build 0)  -->
<svg version="1.1" id="Layer_1" xmlns="http://www.w3.org/2000/svg" xmlns:xlink="http://www.w3.org/1999/xlink" x="0px" y="0px"
	 viewBox="0 0 28.9 31" style="enable-background:new 0 0 28.9 31;" xml:space="preserve">
<style type="text/css">
	.st0{fill:#FFFFFF;}
	.st1{fill:none;}
</style>
<g>
	<path class="st0" d="M20.9,22.5V1.2c0-1.1-1.4-1.6-2.2-0.8L9.2,10.7H9H4.5H4.2c-0.7,0-1.3,0.5-1.3,1.2v7.7c0,0.7,0.6,1.2,1.3,1.2
		h5.5l9,9.8c0.8,0.8,2.2,0.3,2.2-0.8L20.9,22.5z"/>
	<path class="st0" d="M25,22.3c-0.4,0-0.8-0.2-1-0.5c-0.5-0.6-0.4-1.4,0.2-1.9c1.4-1.1,2.1-2.8,2.1-4.5s-0.8-3.4-2.1-4.5
		C23.6,10.4,23.6,9.6,24,9c0.5-0.6,1.3-0.6,1.9-0.2c1.9,1.6,3,4,3,6.5s-1.1,4.9-3.1,6.6C25.6,22.2,25.3,22.3,25,22.3z"/>
</g>
<rect class="st1" width="28.9" height="30.9"/>
</svg>
