<?xml version="1.0" encoding="utf-8"?>
<!-- Generator: Adobe Illustrator 25.0.0, SVG Export Plug-In . SVG Version: 6.00 Build 0)  -->
<svg version="1.1" id="Layer_1" xmlns="http://www.w3.org/2000/svg" xmlns:xlink="http://www.w3.org/1999/xlink" x="0px" y="0px"
	 viewBox="0 0 23.1 24.9" style="enable-background:new 0 0 23.1 24.9;" xml:space="preserve">
<style type="text/css">
	.st0{fill:#FFFFFF;}
	.st1{fill:none;}
</style>
<g>
	<path class="st0" d="M16.7,18V1c0-0.9-1.1-1.3-1.8-0.6L7.4,8.6H7.2H3.6H3.4c-0.6,0-1,0.4-1,1v6.2c0,0.6,0.5,1,1,1h4.4l7.2,7.8
		c0.6,0.6,1.8,0.2,1.8-0.6L16.7,18z"/>
	<path class="st0" d="M20,17.8c-0.3,0-0.6-0.2-0.8-0.4c-0.4-0.5-0.3-1.1,0.2-1.5c1.1-0.9,1.7-2.2,1.7-3.6s-0.6-2.7-1.7-3.6
		c-0.5-0.4-0.5-1-0.2-1.5c0.4-0.5,1-0.5,1.5-0.2c1.5,1.3,2.4,3.2,2.4,5.2s-0.9,3.9-2.5,5.3C20.5,17.8,20.2,17.8,20,17.8z"/>
</g>
<rect class="st1" width="23.1" height="24.7"/>
</svg>
